HIERARCHY
ROOT Hips
{
	OFFSET	0.00	0.00	0.00
	CHANNELS 6 Xposition Yposition Zposition Zrotation Xrotation Yrotation
	JOINT LeftUpLeg
	{
		OFFSET	 0.126116	-0.014019	-0.065224
		CHANNELS 3 Zrotation Xrotation Yrotation
		JOINT LeftLeg
		{
			OFFSET	 0.000000	 0.000000	 0.569914
			CHANNELS 3 Zrotation Xrotation Yrotation
			JOINT LeftFoot
			{
				OFFSET	 0.000000	 0.000000	 0.544423
				CHANNELS 3 Zrotation Xrotation Yrotation
				JOINT LeftToeBase
				{
					OFFSET	 0.000000	 0.000000	 0.207117
					CHANNELS 3 Zrotation Xrotation Yrotation
					End Site
					{
						OFFSET	 0.000000	 0.000000	 0.207117
					}
				}
			}
		}
	}
	JOINT RightUpLeg
	{
		OFFSET	-0.124023	-0.008373	-0.065224
		CHANNELS 3 Zrotation Xrotation Yrotation
		JOINT RightLeg
		{
			OFFSET	 0.000000	 0.000000	 0.570047
			CHANNELS 3 Zrotation Xrotation Yrotation
			JOINT RightFoot
			{
				OFFSET	 0.000000	 0.000000	 0.544354
				CHANNELS 3 Zrotation Xrotation Yrotation
				JOINT RightToeBase
				{
					OFFSET	 0.000000	 0.000000	 0.207540
					CHANNELS 3 Zrotation Xrotation Yrotation
					End Site
					{
						OFFSET	 0.000000	 0.000000	 0.207540
					}
				}
			}
		}
	}
	JOINT Spine
	{
		OFFSET	 0.000184	-0.007763	 0.117403
		CHANNELS 3 Zrotation Xrotation Yrotation
		JOINT Spine1
		{
			OFFSET	 0.000000	 0.000000	 0.137269
			CHANNELS 3 Zrotation Xrotation Yrotation
			JOINT Spine2
			{
				OFFSET	 0.000000	 0.000000	 0.156879
				CHANNELS 3 Zrotation Xrotation Yrotation
				JOINT LeftShoulder
				{
					OFFSET	 0.080501	-0.002496	 0.160144
					CHANNELS 3 Zrotation Xrotation Yrotation
					JOINT LeftArm
					{
						OFFSET	 0.000000	 0.000000	 0.164363
						CHANNELS 3 Zrotation Xrotation Yrotation
						JOINT LeftForeArm
						{
							OFFSET	 0.000000	 0.000000	 0.364576
							CHANNELS 3 Zrotation Xrotation Yrotation
							JOINT LeftHand
							{
								OFFSET	 0.000000	 0.000000	 0.360812
								CHANNELS 3 Zrotation Xrotation Yrotation
								JOINT LeftHandIndex1
								{
									OFFSET	 0.000000	 0.000000	 0.086006
									CHANNELS 3 Zrotation Xrotation Yrotation
									JOINT LeftHandIndex2
									{
										OFFSET	 0.000000	 0.000000	 0.047236
										CHANNELS 3 Zrotation Xrotation Yrotation
										JOINT LeftHandIndex3
										{
											OFFSET	-0.004284	-0.000551	 0.038166
											CHANNELS 3 Zrotation Xrotation Yrotation
											End Site
											{
												OFFSET	-0.004284	-0.000551	 0.038166
											}
										}
									}
								}
							}
						}
					}
				}
				JOINT Neck
				{
					OFFSET	 0.000000	 0.000000	 0.176489
					CHANNELS 3 Zrotation Xrotation Yrotation
					JOINT Head
					{
						OFFSET	 0.000000	-0.001747	 0.077940
						CHANNELS 3 Zrotation Xrotation Yrotation
						End Site
						{
							OFFSET	 0.000000	-0.001747	 0.077940
						}
					}
				}
				JOINT RightShoulder
				{
					OFFSET	-0.080363	 0.000306	 0.159706
					CHANNELS 3 Zrotation Xrotation Yrotation
					JOINT RightArm
					{
						OFFSET	 0.000000	 0.000000	 0.164196
						CHANNELS 3 Zrotation Xrotation Yrotation
						JOINT RightForeArm
						{
							OFFSET	 0.000000	 0.000000	 0.365611
							CHANNELS 3 Zrotation Xrotation Yrotation
							JOINT RightHand
							{
								OFFSET	 0.000000	 0.000000	 0.360648
								CHANNELS 3 Zrotation Xrotation Yrotation
								JOINT RightHandIndex1
								{
									OFFSET	 0.000000	 0.000000	 0.069977
									CHANNELS 3 Zrotation Xrotation Yrotation
									JOINT RightHandIndex2
									{
										OFFSET	 0.000000	 0.000000	 0.052305
										CHANNELS 3 Zrotation Xrotation Yrotation
										JOINT RightHandIndex3
										{
											OFFSET	 0.009002	-0.000782	 0.042196
											CHANNELS 3 Zrotation Xrotation Yrotation
											End Site
											{
												OFFSET	 0.009002	-0.000782	 0.042196
											}
										}
									}
								}
							}
						}
					}
				}
			}
		}
	}
}
MOTION
Frames:    9
Frame Time: 0.03333334
-0.057617	-2.225508	 1.203938	 3.944114	-1.839279	-3.550110	 24.271610	-9.958621	-175.494700	 0.190206	-38.597310	-0.099802	 61.525590	 81.721530	-65.072900	-2.371627	 31.238440	-0.061418	-26.747840	-30.350840	-175.105200	 10.136450	-53.755120	 8.834500	 3.383415	 70.545390	 3.913616	 2.357725	 33.181290	 0.107444	 7.909168	 8.103315	 1.406467	 0.838748	 5.602686	 2.277383	-5.870471	-6.341032	-3.265788	-93.741970	 58.836340	 175.821900	 11.743210	 30.176530	-40.320840	 11.008130	-1.324964	-6.427910	-7.487442	-9.583399	-7.045753	-4.869335	 19.250250	-2.788496	-3.891314	 21.347390	 2.212698	-4.807485	 5.554626	 0.146432	-0.133518	-5.006140	 0.154679	-7.797488	 0.221842	 2.161514	 89.841670	 61.559940	-179.858400	-18.919540	 48.260590	 13.257240	-12.594050	-1.374219	 6.472262	 2.578235	 3.489998	 0.349145	 6.306026	 26.125260	-0.578974	 1.710709	 46.075260	-6.836704	 0.323517	 25.158510	 3.672307
-0.060192	-2.284948	 1.203183	 4.941698	-1.364003	-3.546376	 22.776260	-7.158922	-176.806700	 0.883234	-37.157980	 0.320449	 67.433360	 83.444950	-71.161830	-2.369826	 31.544280	-0.068324	-29.748350	-33.340660	-178.295100	 9.649444	-46.380270	 7.573803	-3.804085	 71.408680	 11.477730	 2.358736	 33.034320	 0.104017	 1.248699	 7.895437	 1.281946	 0.727803	 5.754297	 2.328140	-6.350594	-6.505493	-3.372216	-93.927880	 58.992580	 175.407100	 10.016820	 26.947640	-41.454030	 12.869230	-2.052101	-7.948967	-5.847471	-11.289550	-8.660874	-4.869078	 19.248050	-2.786517	-3.884392	 21.436050	 2.205672	-4.808269	 5.545394	 0.146973	-0.078551	-5.071969	 0.182806	-8.063650	 0.196276	 1.918994	 89.782230	 61.645300	-179.999600	-18.926470	 49.955260	 10.809310	-15.908670	-2.115952	 7.992165	 1.148347	 2.603113	 0.310228	 6.294245	 24.903510	-0.542036	 1.881356	 44.734100	-6.989423	 0.529147	 24.263580	 3.566810
-0.063525	-2.350725	 1.197548	 5.948612	-0.517111	-3.630887	 21.281350	-4.592314	-178.025300	 1.299192	-35.997420	 0.556318	 79.361490	 85.316220	-83.059130	-2.368075	 31.833470	-0.074884	-33.117650	-35.475590	 177.765600	 9.447762	-35.976190	 6.037104	-12.925130	 71.741140	 20.060920	 2.359060	 32.987830	 0.102939	-6.179341	 7.370327	 1.098381	 0.655687	 5.921992	 2.565434	-6.902829	-6.693257	-3.583774	-94.171530	 59.020120	 174.883500	 7.966551	 23.553460	-42.432160	 15.621170	-3.041055	-9.548772	-3.729364	-13.770490	-9.577709	-4.862206	 19.434160	-2.800882	-3.870985	 21.607480	 2.192039	-4.803031	 5.607113	 0.143361	-0.026026	-5.114386	 0.249810	-8.406445	 0.188766	 1.730898	 89.691370	 61.755820	 179.782900	-18.731680	 52.134580	 4.645653	-19.248780	-6.749123	 16.186890	-0.925420	 1.358116	 0.143720	 6.270616	 23.150230	-0.557320	 2.086826	 43.019730	-7.171716	 0.883608	 22.686610	 3.391213
-0.066850	-2.409157	 1.190235	 6.389327	 0.211598	-3.974032	 20.439810	-1.856427	-178.909000	 1.497295	-34.413930	 0.646931	 103.481600	 86.744840	-107.073600	-2.365754	 32.206500	-0.083392	-34.354980	-36.676320	 175.076000	 9.516522	-27.346420	 4.760037	-16.457910	 70.178810	 22.559440	 2.361168	 32.671180	 0.095607	-12.155760	 6.793688	 1.217984	 0.592019	 6.152503	 2.713894	-7.312710	-6.805390	-3.752324	-94.354210	 58.953140	 174.504100	 6.398559	 21.221600	-43.137230	 17.432460	-3.979223	-10.786820	-2.391260	-16.446460	-8.985752	-4.847622	 19.776220	-2.817406	-3.852690	 21.839980	 2.173457	-4.791810	 5.739264	 0.135612	-0.006682	-5.177510	 0.309347	-8.730418	 0.184915	 1.679948	 89.568940	 61.906500	 179.486900	-18.114180	 53.329560	 2.135913	-22.749860	-8.459320	 17.739970	-3.066057	 0.226620	-0.611167	 6.240350	 21.366260	-0.615877	 2.244625	 41.623630	-7.310429	 1.273639	 20.901710	 3.207482
-0.071095	-2.465368	 1.179941	 6.566853	 0.622482	-4.308435	 19.788580	 1.263498	-179.927100	 1.600072	-32.713100	 0.674182	 139.577500	 87.570300	-142.972000	-2.359989	 33.086360	-0.103662	-33.935680	-40.032790	 173.124600	 9.505946	-24.214190	 4.247530	-22.480550	 74.959920	 27.438980	 2.354399	 33.656100	 0.118548	-17.737520	 6.326946	 1.406551	 0.562537	 6.669472	 2.753747	-7.635789	-6.940321	-3.855703	-94.462010	 58.881530	 174.286100	 4.918246	 19.653980	-43.880500	 19.131400	-4.952088	-11.873600	-1.302525	-18.741530	-8.144089	-4.829219	 20.149040	-2.822305	-3.828453	 22.145830	 2.148832	-4.773784	 5.950939	 0.123131	 0.018138	-5.261636	 0.338653	-8.996119	 0.163528	 1.599834	 89.464790	 62.013070	 179.233300	-17.097190	 54.133690	-0.105126	-26.324320	-9.843943	 18.496410	-5.202572	-1.139897	-1.840985	 6.203264	 19.414220	-0.693913	 2.486037	 39.342930	-7.520199	 1.694733	 18.917460	 3.020845
-0.077082	-2.534158	 1.166886	 6.842142	 0.730560	-4.616000	 18.970650	 5.787754	 178.661100	 1.775832	-29.529640	 0.701520	-170.608200	 88.363270	 167.387700	-2.343050	 35.357460	-0.157503	-33.522670	-44.136130	 171.473300	 10.234040	-24.576420	 4.618532	-29.698010	 79.443320	 33.286580	 2.338851	 35.661170	 0.166552	-24.104680	 6.304162	 1.557325	 0.477714	 6.578644	 2.862957	-7.951076	-6.894212	-3.981329	-94.533800	 58.890400	 174.132100	 3.458087	 18.783930	-44.237140	 21.442100	-6.119668	-12.981150	-0.079029	-21.954400	-7.727211	-4.838655	 20.445420	-2.964501	-3.797051	 22.538570	 2.116938	-4.742562	 6.316066	 0.101434	 0.085395	-5.369158	 0.353247	-9.215385	 0.223398	 1.332944	 89.375330	 61.991800	 179.018000	-15.532620	 54.661540	-2.890167	-30.207330	-11.388480	 19.177980	-7.488122	-3.284969	-3.418476	 6.169604	 16.976140	-0.703729	 2.792538	 36.169700	-7.781684	 2.202107	 16.450540	 2.812991
-0.083117	-2.598832	 1.158566	 7.088785	 0.664725	-4.477103	 18.253650	 10.344280	 176.990400	 2.106834	-25.533180	 0.756276	-68.026900	 87.869800	 64.942850	-2.306365	 39.250870	-0.255724	-32.972080	-44.035660	 170.880100	 10.239470	-24.046840	 4.527659	-27.535690	 78.723800	 31.079290	 2.337438	 35.828790	 0.170653	-29.207220	 6.342437	 1.429782	 0.289663	 5.934083	 2.738165	-8.167860	-6.529575	-3.971034	-94.529600	 59.099000	 174.106500	 2.538438	 18.697340	-43.764260	 23.290500	-7.077145	-13.767080	 0.710107	-25.058440	-7.701191	-4.865614	 20.564600	-3.156604	-3.773551	 22.829770	 2.093086	-4.705697	 6.744780	 0.075686	 0.153064	-5.451838	 0.304978	-9.313967	 0.338405	 1.134951	 89.356810	 61.771040	 178.981700	-14.352620	 54.687630	-4.336915	-33.294350	-11.718510	 18.654470	-9.412349	-5.374206	-4.682910	 6.177466	 14.897790	-0.529772	 2.962878	 34.258580	-7.924323	 2.611068	 14.404650	 2.659676
-0.091497	-2.678802	 1.151151	 7.397259	 0.319919	-3.681221	 17.697700	 13.986050	 174.092400	 1.880800	-25.151110	 0.649573	-50.429090	 84.276490	 48.631260	-2.192679	 47.225700	-0.489616	-31.305600	-41.497330	 171.095900	 7.620867	-25.952460	 3.688032	-26.542780	 75.748680	 33.717260	 2.340344	 35.481050	 0.162167	-34.598210	 6.383807	 0.683220	-0.080257	 4.955961	 2.543793	-8.399867	-5.831204	-3.979644	-94.468750	 59.332610	 174.197800	 2.146346	 18.960770	-42.541940	 24.998790	-8.130105	-14.531040	 1.771179	-28.080300	-7.131654	-4.889828	 20.689450	-3.337009	-3.756306	 23.042020	 2.075568	-4.647983	 7.410573	 0.035096	 0.241846	-5.477060	 0.249897	-9.375971	 0.531246	 1.254534	 89.354170	 61.476140	 178.986200	-13.289990	 54.396860	-5.104134	-36.599580	-11.549300	 17.703460	-11.932590	-7.858867	-5.939244	 6.251343	 12.460560	-0.070898	 3.106270	 32.561610	-8.042692	 3.043947	 12.186930	 2.511884
-0.099497	-2.751896	 1.147815	 8.230967	-0.373744	-2.810484	 17.521950	 14.488680	 171.137300	 0.333728	-29.300620	-0.009294	-36.162940	 79.265550	 37.918300	-2.013991	 54.761410	-0.775993	-29.429740	-38.976220	 172.106600	 6.634307	-29.081720	 3.608338	-28.413260	 70.174310	 39.447870	 2.335964	 36.001240	 0.174881	-38.405110	 6.632265	-0.197716	-0.268025	 4.431535	 2.610186	-8.672228	-5.253390	-4.164815	-94.409080	 59.154160	 174.355100	 2.597608	 19.066580	-41.633130	 26.063130	-8.947777	-15.062860	 3.242665	-29.362800	-5.977090	-4.895807	 20.863440	-3.429968	-3.739616	 23.246350	 2.058625	-4.588458	 8.090600	-0.007126	 0.339051	-5.431437	 0.273366	-9.450762	 0.821075	 1.552134	 89.256220	 61.410680	 178.756800	-12.613750	 53.853590	-3.454772	-39.033040	-9.087903	 15.034400	-14.008320	-10.055550	-6.153327	 6.322149	 10.454620	 0.287670	 3.259899	 30.648840	-8.167635	 3.351319	 10.582210	 2.416342
